<mxfile host="app.diagrams.net" modified="2023-10-30T18:46:02.411Z" agent="Mozilla/5.0 (Windows NT 10.0; Win64; x64) AppleWebKit/537.36 (KHTML, like Gecko) Chrome/118.0.0.0 Safari/537.36" version="21.8.2" etag="vU7Ny6JAMd6feOfWmudL" type="github">
  <diagram name="Page-1" id="1ovV8pkitNmrTxOtia-3">
    <mxGraphModel>
      <root>
        <mxCell id="0" />
        <mxCell id="1" parent="0" />
      </root>
    </mxGraphModel>
  </diagram>
</mxfile>
